<svg width="43" height="21" viewBox="0 0 43 21" fill="none" xmlns="http://www.w3.org/2000/svg">
<path d="M21.4991 20.7279C20.8079 20.7292 20.1381 20.49 19.6058 20.0518L1.85581 5.35402C1.25167 4.85507 0.871751 4.13808 0.799628 3.36078C0.727504 2.58349 0.969087 1.80956 1.47123 1.20926C1.97337 0.608952 2.69495 0.231443 3.47721 0.159778C4.25947 0.0881122 5.03834 0.32816 5.64248 0.827115L21.4991 13.9963L37.3558 1.29745C37.6584 1.05327 38.0066 0.870923 38.3804 0.760891C38.7541 0.650859 39.1461 0.615308 39.5337 0.656283C39.9213 0.697258 40.297 0.813949 40.6391 0.999651C40.9812 1.18535 41.2829 1.43641 41.5271 1.73838C41.798 2.04063 42.0032 2.39521 42.1298 2.77992C42.2564 3.16463 42.3016 3.57117 42.2628 3.97408C42.2239 4.37698 42.1017 4.76757 41.9038 5.12136C41.706 5.47516 41.4367 5.78454 41.1129 6.03012L23.3629 20.2281C22.8154 20.5971 22.1592 20.7731 21.4991 20.7279Z" fill="#252525"/>
</svg>
