<svg width="1920" height="2900" viewBox="0 0 1920 2900" fill="none" xmlns="http://www.w3.org/2000/svg">
<rect width="218" height="218" fill="#F1F1F1"/>
<rect x="436" width="218" height="218" fill="#F1F1F1"/>
<rect x="870" width="218" height="218" fill="#F1F1F1"/>
<rect x="1304" width="218" height="218" fill="#F1F1F1"/>
<rect x="1740" width="180" height="218" fill="#F1F1F1"/>
<rect x="218" y="218" width="218" height="218" fill="#F1F1F1"/>
<rect x="654" y="218" width="218" height="218" fill="#F1F1F1"/>
<rect x="1088" y="218" width="218" height="218" fill="#F1F1F1"/>
<rect x="1522" y="218" width="218" height="218" fill="#F1F1F1"/>
<rect y="432" width="218" height="218" fill="#F1F1F1"/>
<rect x="436" y="432" width="218" height="218" fill="#F1F1F1"/>
<rect x="870" y="432" width="218" height="218" fill="#F1F1F1"/>
<rect x="1304" y="432" width="218" height="218" fill="#F1F1F1"/>
<rect x="1740" y="432" width="180" height="218" fill="#F1F1F1"/>
<rect x="218" y="650" width="218" height="218" fill="#F1F1F1"/>
<rect y="868" width="218" height="112" fill="#F1F1F1"/>
<rect x="436" y="868" width="218" height="112" fill="#F1F1F1"/>
<rect x="875" y="868" width="218" height="112" fill="#F1F1F1"/>
<rect x="1311" y="868" width="218" height="112" fill="#F1F1F1"/>
<rect x="1742" y="868" width="178" height="112" fill="#F1F1F1"/>
<rect x="654" y="650" width="218" height="218" fill="#F1F1F1"/>
<rect x="1088" y="650" width="218" height="218" fill="#F1F1F1"/>
<rect x="1522" y="650" width="218" height="218" fill="#F1F1F1"/>
<rect y="883" width="218" height="218" fill="#F1F1F1"/>
<rect x="436" y="883" width="218" height="218" fill="#F1F1F1"/>
<rect x="870" y="883" width="218" height="218" fill="#F1F1F1"/>
<rect x="1304" y="883" width="218" height="218" fill="#F1F1F1"/>
<rect x="1740" y="883" width="180" height="218" fill="#F1F1F1"/>
<rect x="218" y="1101" width="218" height="218" fill="#F1F1F1"/>
<rect x="654" y="1101" width="218" height="218" fill="#F1F1F1"/>
<rect x="1088" y="1101" width="218" height="218" fill="#F1F1F1"/>
<rect x="1522" y="1101" width="218" height="218" fill="#F1F1F1"/>
<rect y="1315" width="218" height="218" fill="#F1F1F1"/>
<rect x="436" y="1315" width="218" height="218" fill="#F1F1F1"/>
<rect x="870" y="1315" width="218" height="218" fill="#F1F1F1"/>
<rect x="1304" y="1315" width="218" height="218" fill="#F1F1F1"/>
<rect x="1740" y="1315" width="180" height="218" fill="#F1F1F1"/>
<rect x="218" y="1533" width="218" height="218" fill="#F1F1F1"/>
<rect y="1751" width="218" height="112" fill="#F1F1F1"/>
<rect x="436" y="1751" width="218" height="112" fill="#F1F1F1"/>
<rect x="875" y="1751" width="218" height="112" fill="#F1F1F1"/>
<rect x="1311" y="1751" width="218" height="112" fill="#F1F1F1"/>
<rect x="1742" y="1751" width="178" height="112" fill="#F1F1F1"/>
<rect x="654" y="1533" width="218" height="218" fill="#F1F1F1"/>
<rect x="1088" y="1533" width="218" height="218" fill="#F1F1F1"/>
<rect x="1522" y="1533" width="218" height="218" fill="#F1F1F1"/>
<rect y="1920" width="218" height="218" fill="#F1F1F1"/>
<rect x="436" y="1920" width="218" height="218" fill="#F1F1F1"/>
<rect x="870" y="1920" width="218" height="218" fill="#F1F1F1"/>
<rect x="1304" y="1920" width="218" height="218" fill="#F1F1F1"/>
<rect x="1740" y="1920" width="180" height="218" fill="#F1F1F1"/>
<rect x="218" y="2138" width="218" height="218" fill="#F1F1F1"/>
<rect x="654" y="2138" width="218" height="218" fill="#F1F1F1"/>
<rect x="1088" y="2138" width="218" height="218" fill="#F1F1F1"/>
<rect x="1522" y="2138" width="218" height="218" fill="#F1F1F1"/>
<rect y="2352" width="218" height="218" fill="#F1F1F1"/>
<rect x="436" y="2352" width="218" height="218" fill="#F1F1F1"/>
<rect x="870" y="2352" width="218" height="218" fill="#F1F1F1"/>
<rect x="1304" y="2352" width="218" height="218" fill="#F1F1F1"/>
<rect x="1740" y="2352" width="180" height="218" fill="#F1F1F1"/>
<rect x="218" y="2570" width="218" height="218" fill="#F1F1F1"/>
<rect y="2788" width="218" height="112" fill="#F1F1F1"/>
<rect x="436" y="2788" width="218" height="112" fill="#F1F1F1"/>
<rect x="875" y="2788" width="218" height="112" fill="#F1F1F1"/>
<rect x="1311" y="2788" width="218" height="112" fill="#F1F1F1"/>
<rect x="1742" y="2788" width="178" height="112" fill="#F1F1F1"/>
<rect x="654" y="2570" width="218" height="218" fill="#F1F1F1"/>
<rect x="1088" y="2570" width="218" height="218" fill="#F1F1F1"/>
<rect x="1522" y="2570" width="218" height="218" fill="#F1F1F1"/>
</svg>
