<svg width="38" height="38" viewBox="0 0 38 38" fill="none" xmlns="http://www.w3.org/2000/svg">
<path d="M33.2498 11.3208C32.7688 11.1042 32.2347 11.0338 31.7139 11.1182C31.1931 11.2027 30.7086 11.4383 30.3207 11.7958L26.9165 14.9625V12.6667C26.9165 11.4069 26.4161 10.1987 25.5253 9.3079C24.6345 8.4171 23.4263 7.91666 22.1665 7.91666H7.9165C6.65673 7.91666 5.44854 8.4171 4.55775 9.3079C3.66695 10.1987 3.1665 11.4069 3.1665 12.6667V25.3333C3.1665 26.5931 3.66695 27.8013 4.55775 28.6921C5.44854 29.5829 6.65673 30.0833 7.9165 30.0833H22.1665C23.4263 30.0833 24.6345 29.5829 25.5253 28.6921C26.4161 27.8013 26.9165 26.5931 26.9165 25.3333V23.0375L30.3365 26.2042C30.84 26.6599 31.4941 26.9136 32.1732 26.9167C32.55 26.9158 32.9224 26.8348 33.2657 26.6792C33.7327 26.4902 34.1327 26.1664 34.4148 25.749C34.6968 25.3316 34.848 24.8396 34.849 24.3358V13.6642C34.8467 13.1586 34.6932 12.6652 34.4082 12.2476C34.1232 11.83 33.7198 11.5073 33.2498 11.3208ZM23.7498 25.3333C23.7498 25.7532 23.583 26.156 23.2861 26.4529C22.9892 26.7498 22.5864 26.9167 22.1665 26.9167H7.9165C7.49658 26.9167 7.09385 26.7498 6.79692 26.4529C6.49999 26.156 6.33317 25.7532 6.33317 25.3333V12.6667C6.33317 12.2467 6.49999 11.844 6.79692 11.5471C7.09385 11.2501 7.49658 11.0833 7.9165 11.0833H22.1665C22.5864 11.0833 22.9892 11.2501 23.2861 11.5471C23.583 11.844 23.7498 12.2467 23.7498 12.6667V25.3333ZM31.6665 23.1167L27.2173 19L31.6665 14.8833V23.1167Z" fill="white"/>
</svg>
