<svg width="79" height="75" viewBox="0 0 79 75" fill="none" xmlns="http://www.w3.org/2000/svg">
<path d="M34.7447 3.63525C36.2415 -0.971304 42.7585 -0.971296 44.2553 3.63526L49.9399 21.1307C50.6093 23.1908 52.5291 24.5856 54.6952 24.5856H73.091C77.9346 24.5856 79.9485 30.7837 76.0299 33.6307L61.1474 44.4435C59.395 45.7167 58.6617 47.9736 59.331 50.0337L65.0157 67.5291C66.5124 72.1357 61.24 75.9663 57.3214 73.1193L42.4389 62.3065C40.6865 61.0333 38.3135 61.0333 36.5611 62.3065L21.6785 73.1193C17.76 75.9663 12.4876 72.1357 13.9843 67.5291L19.669 50.0337C20.3383 47.9735 19.605 45.7167 17.8526 44.4435L2.97007 33.6307C-0.948496 30.7837 1.06539 24.5856 5.90901 24.5856H24.3048C26.471 24.5856 28.3907 23.1908 29.0601 21.1307L34.7447 3.63525Z" fill="#DD5555"/>
</svg>
