<svg width="20" height="11" viewBox="0 0 20 11" fill="none" xmlns="http://www.w3.org/2000/svg">
<path d="M10.001 10.3333C9.68948 10.3339 9.38757 10.2254 9.14769 10.0267L1.14769 3.35999C0.875397 3.13367 0.704164 2.80846 0.671658 2.45589C0.639151 2.10332 0.748034 1.75228 0.974352 1.47999C1.20067 1.2077 1.52589 1.03647 1.87845 1.00396C2.23102 0.971457 2.58206 1.08034 2.85435 1.30666L10.001 7.27999L17.1477 1.51999C17.2841 1.40924 17.441 1.32653 17.6095 1.27662C17.7779 1.22671 17.9546 1.21058 18.1293 1.22917C18.304 1.24776 18.4733 1.30069 18.6275 1.38492C18.7816 1.46915 18.9177 1.58302 19.0277 1.71999C19.1498 1.85709 19.2423 2.01792 19.2993 2.19242C19.3564 2.36692 19.3768 2.55132 19.3593 2.73407C19.3417 2.91682 19.2867 3.09398 19.1975 3.25446C19.1083 3.41494 18.987 3.55527 18.841 3.66666L10.841 10.1067C10.5942 10.274 10.2985 10.3538 10.001 10.3333Z" fill="#8A8A8A"/>
</svg>
