<svg width="62" height="58" viewBox="0 0 62 58" fill="none" xmlns="http://www.w3.org/2000/svg">
<path d="M25.6921 45.5135C25.0918 45.5146 24.5101 45.3197 24.0478 44.9626C23.7877 44.7615 23.5726 44.5145 23.415 44.2358C23.2574 43.9571 23.1603 43.6521 23.1293 43.3384C23.0982 43.0246 23.1339 42.7083 23.2342 42.4074C23.3345 42.1065 23.4975 41.827 23.7138 41.585L35.2238 28.7454L24.1249 15.8818C23.9115 15.6368 23.7521 15.3549 23.656 15.0522C23.5598 14.7496 23.5287 14.4322 23.5645 14.1184C23.6003 13.8045 23.7023 13.5003 23.8646 13.2233C24.0269 12.9463 24.2464 12.7019 24.5103 12.5043C24.7761 12.2862 25.0874 12.1217 25.4246 12.0211C25.7619 11.9205 26.1178 11.886 26.47 11.9198C26.8222 11.9535 27.1632 12.0548 27.4714 12.2172C27.7797 12.3796 28.0486 12.5997 28.2613 12.8636L40.6705 27.2363C41.0484 27.6649 41.2549 28.2025 41.2549 28.7574C41.2549 29.3122 41.0484 29.8499 40.6705 30.2785L27.8245 44.6512C27.5668 44.941 27.2394 45.1702 26.8689 45.32C26.4984 45.4699 26.0952 45.5362 25.6921 45.5135Z" fill="white"/>
</svg>
