<svg width="142" height="142" viewBox="0 0 142 142" fill="none" xmlns="http://www.w3.org/2000/svg">
<path d="M61.06 83.78L45.795 68.515C44.4933 67.2133 42.8367 66.5625 40.825 66.5625C38.8133 66.5625 37.1567 67.2133 35.855 68.515C34.5533 69.8167 33.9025 71.4733 33.9025 73.485C33.9025 75.4967 34.5533 77.1533 35.855 78.455L56.09 98.69C57.51 100.11 59.1667 100.82 61.06 100.82C62.9533 100.82 64.61 100.11 66.03 98.69L106.145 58.575C107.447 57.2733 108.097 55.6167 108.097 53.605C108.097 51.5933 107.447 49.9367 106.145 48.635C104.843 47.3333 103.187 46.6825 101.175 46.6825C99.1633 46.6825 97.5067 47.3333 96.205 48.635L61.06 83.78ZM71 142C61.1783 142 51.9483 140.135 43.31 136.405C34.6717 132.675 27.1575 127.618 20.7675 121.232C14.3775 114.842 9.31993 107.328 5.5948 98.69C1.86967 90.0517 0.00473333 80.8217 0 71C0 61.1783 1.86493 51.9483 5.5948 43.31C9.32467 34.6717 14.3822 27.1575 20.7675 20.7675C27.1575 14.3775 34.6717 9.31993 43.31 5.5948C51.9483 1.86967 61.1783 0.00473333 71 0C80.8217 0 90.0517 1.86493 98.69 5.5948C107.328 9.32467 114.842 14.3822 121.232 20.7675C127.622 27.1575 132.682 34.6717 136.412 43.31C140.142 51.9483 142.005 61.1783 142 71C142 80.8217 140.135 90.0517 136.405 98.69C132.675 107.328 127.618 114.842 121.232 121.232C114.842 127.622 107.328 132.682 98.69 136.412C90.0517 140.142 80.8217 142.005 71 142Z" fill="#DD5555"/>
</svg>
