<svg width="35" height="32" viewBox="0 0 35 32" fill="none" xmlns="http://www.w3.org/2000/svg">
<path d="M12.2413 14C13.6248 14 14.9772 13.5895 16.1276 12.8203C17.2779 12.0511 18.1745 10.9579 18.7039 9.67879C19.2334 8.3997 19.3719 6.99224 19.102 5.63437C18.8321 4.2765 18.1659 3.02922 17.1876 2.05026C16.2093 1.07129 14.9629 0.404603 13.6059 0.134506C12.249 -0.13559 10.8425 0.00303297 9.56433 0.532846C8.28613 1.06266 7.19363 1.95987 6.42499 3.11101C5.65635 4.26216 5.24609 5.61553 5.24609 7C5.24609 8.85652 5.98308 10.637 7.29493 11.9498C8.60678 13.2625 10.386 14 12.2413 14Z" fill="#595959"/>
<path d="M26.2317 17.5C27.2694 17.5 28.2837 17.1921 29.1465 16.6152C30.0092 16.0383 30.6817 15.2184 31.0787 14.2591C31.4758 13.2998 31.5797 12.2442 31.3773 11.2258C31.1749 10.2074 30.6752 9.27192 29.9415 8.53769C29.2078 7.80347 28.2729 7.30345 27.2552 7.10088C26.2375 6.89831 25.1827 7.00227 24.224 7.39963C23.2654 7.79699 22.446 8.4699 21.8695 9.33326C21.293 10.1966 20.9854 11.2116 20.9854 12.25C20.9854 13.6424 21.5381 14.9777 22.522 15.9623C23.5059 16.9469 24.8403 17.5 26.2317 17.5Z" fill="#595959"/>
<path d="M33.227 29.75C33.6908 29.75 34.1357 29.5657 34.4636 29.2375C34.7916 28.9093 34.9758 28.4642 34.9758 28C34.9744 26.3645 34.515 24.7621 33.6496 23.3746C32.7842 21.9871 31.5475 20.8701 30.0798 20.1504C28.6122 19.4306 26.9723 19.1369 25.3463 19.3025C23.7202 19.4682 22.1732 20.0866 20.8806 21.0875C19.1676 19.3802 16.9879 18.2186 14.6161 17.7493C12.2443 17.28 9.7868 17.524 7.55343 18.4505C5.32006 19.3771 3.41087 20.9446 2.06662 22.9555C0.722372 24.9665 0.00327058 27.3307 0 29.75C0 30.2142 0.184247 30.6593 0.512209 30.9875C0.840171 31.3157 1.28498 31.5 1.74879 31.5H22.7343C23.1981 31.5 23.6429 31.3157 23.9709 30.9875C24.2988 30.6593 24.4831 30.2142 24.4831 29.75" fill="#595959"/>
</svg>
