<svg width="62" height="58" viewBox="0 0 62 58" fill="none" xmlns="http://www.w3.org/2000/svg">
<path d="M36.3079 12.4865C36.9082 12.4854 37.4899 12.6803 37.9522 13.0374C38.2123 13.2385 38.4274 13.4855 38.585 13.7642C38.7426 14.0429 38.8397 14.3479 38.8707 14.6616C38.9018 14.9754 38.8661 15.2917 38.7658 15.5926C38.6655 15.8935 38.5025 16.173 38.2862 16.415L26.7762 29.2546L37.8751 42.1182C38.0885 42.3632 38.2479 42.6451 38.344 42.9478C38.4402 43.2504 38.4713 43.5678 38.4355 43.8816C38.3997 44.1955 38.2977 44.4997 38.1354 44.7767C37.9731 45.0537 37.7536 45.2981 37.4897 45.4957C37.2239 45.7138 36.9126 45.8783 36.5754 45.9789C36.2381 46.0795 35.8822 46.114 35.53 46.0802C35.1778 46.0465 34.8368 45.9452 34.5286 45.7828C34.2203 45.6204 33.9514 45.4003 33.7387 45.1364L21.3295 30.7637C20.9516 30.3351 20.7451 29.7975 20.7451 29.2426C20.7451 28.6878 20.9516 28.1501 21.3295 27.7215L34.1755 13.3488C34.4332 13.059 34.7606 12.8298 35.1311 12.68C35.5016 12.5301 35.9048 12.4638 36.3079 12.4865Z" fill="white"/>
</svg>
