<svg width="78" height="75" viewBox="0 0 78 75" fill="none" xmlns="http://www.w3.org/2000/svg">
<path d="M34.2491 3.48105C35.7545 -1.10744 42.2455 -1.10744 43.7509 3.48105L49.5457 21.1443C50.2193 23.1975 52.1357 24.5856 54.2966 24.5856H72.9456C77.8009 24.5856 79.807 30.8083 75.8659 33.6441L60.8619 44.4404C59.0925 45.7135 58.3519 47.9863 59.0314 50.0575L64.782 67.5858C66.2905 72.1839 61.0388 76.0294 57.1108 73.203L41.9203 62.2726C40.1758 61.0173 37.8242 61.0173 36.0797 62.2726L20.8892 73.203C16.9612 76.0294 11.7095 72.1839 13.218 67.5858L18.9686 50.0575C19.6481 47.9863 18.9075 45.7135 17.1381 44.4404L2.1341 33.6441C-1.80698 30.8083 0.19913 24.5856 5.05444 24.5856H23.7034C25.8643 24.5856 27.7807 23.1975 28.4543 21.1443L34.2491 3.48105Z" fill="#AEAEAE"/>
</svg>
