<?xml version="1.0" standalone="yes"?>
<svg xmlns="http://www.w3.org/2000/svg" width="679" height="649">
<path style="fill:#010101; stroke:none;" d="M0 0L0 649L679 649L679 0L0 0z"/>
<path style="fill:#5fcde5; stroke:none;" d="M297 154L297 197L254 197L254 324L340 324L340 282L382 282L382 154L297 154z"/>
<path style="fill:#df2727; stroke:none;" d="M466 197L424 197L424 239L382 239L382 282L424 282L424 312L425.028 323.397L434 325L457 325L552 325L552 197L510 197L510 154L478 154L467.028 155.603L466 167L466 197z"/>
<path style="fill:#010101; stroke:none;" d="M340 282L340 324L382 324L382 367L424 367L424 282L340 282z"/>
<path style="fill:#99e551; stroke:none;" d="M254 324L254 325L340 325L313 324L254 324z"/>
<path style="fill:#fbf337; stroke:none;" d="M254 325L254 367L212 367L212 495L340 495L340 452L382 452L382 324L254 325z"/>
<path style="fill:#99e551; stroke:none;" d="M424 324L424 367L382 367L382 452L424 452L424 495L510 495L510 452L552 452L552 367L510 367L510 325L454 325L424 324z"/>
</svg>
